<svg version="1.1" id="Layer_1" xmlns="http://www.w3.org/2000/svg" xmlns:xlink="http://www.w3.org/1999/xlink" x="0px" y="0px"
	 width="100%" viewBox="0 0 724 151" enable-background="new 0 0 724 151" xml:space="preserve">
<path fill="#000000" opacity="1.000000" stroke="none" 
	d="
M541.000000,152.000000 
	C360.718018,152.000000 180.936020,152.000000 1.077015,152.000000 
	C1.077015,101.732483 1.077015,51.464813 1.077015,1.098571 
	C242.333313,1.098571 483.666656,1.098571 724.973511,1.098571 
	C724.973511,51.397346 724.973511,101.698685 724.973511,152.000000 
	C663.798035,152.000000 602.649048,152.000000 541.000000,152.000000 
M535.038147,109.032616 
	C535.038147,109.032616 535.081116,109.123863 535.686890,108.870827 
	C536.167969,107.940147 536.649048,107.009468 537.039429,106.034698 
	C537.039429,106.034698 537.082581,106.125763 537.732910,105.830040 
	C539.297729,102.490524 541.385071,99.291290 542.326599,95.784424 
	C544.865723,86.327072 546.026855,76.713600 544.039124,66.914169 
	C542.389832,58.783043 540.194275,50.959751 534.039429,44.963375 
	C534.039429,44.963375 534.132019,44.916988 534.009094,44.227650 
	C531.364746,41.776680 528.720398,39.325706 526.032166,36.965382 
	C526.032166,36.965382 526.121887,36.919678 525.869629,36.325603 
	C524.956055,35.867710 524.042419,35.409813 522.844666,34.295116 
	C514.549927,28.233875 504.938232,26.693659 494.097565,26.021185 
	C480.460999,26.021185 466.824402,26.021185 453.046631,26.021185 
	C453.046631,58.997242 453.032318,92.206413 453.106995,125.415398 
	C453.109558,126.557472 454.002869,127.697548 455.021271,129.429596 
	C455.466522,129.600647 455.911560,129.920456 456.357086,129.921158 
	C469.997772,129.942444 483.697113,130.681396 497.255188,129.620316 
	C504.340424,129.065811 511.177246,125.337906 518.775513,122.779961 
	C523.883545,118.866714 528.991516,114.953468 534.666138,110.817192 
	C534.820190,110.237503 534.974182,109.657822 535.038147,109.032616 
M247.131622,122.682365 
	C248.064072,123.162491 248.996521,123.642616 249.967453,124.035286 
	C249.967453,124.035286 249.880585,124.075081 250.180939,124.724556 
	C258.701050,130.038834 267.940033,132.535217 278.770569,131.985855 
	C280.202667,131.704056 281.634735,131.422241 283.714752,131.038147 
	C284.145630,130.979721 284.576508,130.921310 285.834259,131.000031 
	C292.973541,130.087173 299.602936,127.932495 305.034454,123.039337 
	C305.034454,123.039337 305.077332,123.128418 305.726929,123.007782 
	C306.532196,122.354912 307.337463,121.702049 308.761688,120.824692 
	C310.858643,118.600029 312.955597,116.375366 315.690674,113.857948 
	C321.464996,106.924286 324.870911,98.980339 326.021088,89.363716 
	C326.048248,88.923210 326.075409,88.482704 326.826782,87.563805 
	C327.453308,77.397560 327.504547,67.220108 323.873047,57.551910 
	C322.030884,52.647488 320.892853,47.127106 316.008606,43.152905 
	C313.385773,40.418972 310.762909,37.685040 307.828308,34.325775 
	C304.279053,32.096375 300.865112,29.604902 297.154297,27.688360 
	C287.345184,22.622223 276.763062,21.702597 266.280792,24.268976 
	C260.221008,25.752594 254.668182,29.306787 248.971481,31.974005 
	C248.971481,31.974005 248.932800,31.886694 248.267075,31.994879 
	C247.127548,32.978790 245.988007,33.962708 244.247604,35.172089 
	C242.813004,36.728664 241.378387,38.285240 239.326782,40.118221 
	C238.179382,41.722649 237.031967,43.327076 235.973206,44.969582 
	C235.973206,44.969582 235.926804,44.885006 235.286041,45.193638 
	C227.307800,57.418034 224.659409,71.071274 226.253464,85.232605 
	C227.341949,94.902611 229.802383,104.576210 236.981873,112.027351 
	C236.981873,112.027351 236.895752,112.060913 236.998291,112.746452 
	C238.672440,114.564743 240.346588,116.383034 242.194962,118.744484 
	C242.781631,119.198532 243.368317,119.652573 244.199783,120.706146 
	C245.107300,121.180748 246.014801,121.655350 246.963531,122.040367 
	C246.963531,122.040367 246.873672,122.080978 247.131622,122.682365 
M166.752289,62.263412 
	C166.752289,62.263412 166.418869,62.103603 166.032852,61.477009 
	C163.784470,57.098602 165.283768,53.060219 167.696152,48.886703 
	C168.149506,48.310993 168.602859,47.735283 169.813736,47.000584 
	C174.206879,45.955883 178.600037,44.911179 183.636673,44.021641 
	C184.076752,44.049541 184.516830,44.077438 185.329697,44.756157 
	C187.867935,45.557159 190.406158,46.358162 193.142990,47.729443 
	C194.044098,48.504261 194.945190,49.279083 196.000153,50.795155 
	C197.178802,53.213814 198.357468,55.632477 199.643875,58.272255 
	C206.161331,57.798714 212.506073,57.337723 219.232269,56.849018 
	C218.527740,44.755665 213.945312,35.651093 203.427765,29.780233 
	C194.062378,24.552507 184.275620,22.026094 173.598846,24.074850 
	C167.108414,25.320290 160.758759,26.992313 155.966125,31.964025 
	C155.966125,31.964025 155.922989,31.874050 155.233505,31.997444 
	C153.769791,33.646591 152.306076,35.295734 150.381317,37.055794 
	C150.081375,37.239071 149.937729,37.506344 149.305038,38.178093 
	C148.076965,40.424835 146.327408,42.537800 145.710785,44.941406 
	C142.994003,55.531559 141.692032,66.049858 150.051666,75.612877 
	C150.231339,75.910149 150.494843,76.057816 151.131668,76.688110 
	C153.087601,78.122215 154.929657,79.754288 157.019226,80.956047 
	C165.897720,86.062279 175.883316,87.359024 185.748428,88.949287 
	C197.099915,90.779144 200.532669,95.859909 196.384689,106.123764 
	C195.593109,107.018387 194.801529,107.913010 193.246689,108.991272 
	C180.554214,115.061455 167.632492,112.744171 161.371460,98.054497 
	C158.264359,98.054497 155.109055,98.054497 151.953735,98.054497 
	C148.762817,98.054497 145.571899,98.054497 142.225922,98.054497 
	C142.225922,99.756714 142.225922,102.039024 142.620209,105.039009 
	C142.741486,105.512115 142.867630,105.984024 142.983337,106.458496 
	C144.587021,113.034630 146.488693,119.432671 152.963760,123.040253 
	C152.963760,123.040253 152.872894,123.082695 153.161057,123.721405 
	C158.924225,128.714996 165.958832,130.651276 173.245544,131.519531 
	C185.865799,133.023331 197.862625,131.412415 208.612778,122.946579 
	C208.910080,122.766510 209.057159,122.502693 209.741364,122.009430 
	C210.869888,120.698395 211.998398,119.387352 213.037582,118.033829 
	C213.037582,118.033829 213.079391,118.123474 213.715561,117.839920 
	C217.189056,113.806938 219.710526,109.355141 219.582306,103.460358 
	C219.582306,103.460358 219.154221,103.700752 219.219376,103.679077 
	C219.219376,103.679077 219.179153,103.627968 219.888641,103.233696 
	C219.890869,102.963142 219.893097,102.692589 220.521835,101.978409 
	C220.669434,100.217270 221.217590,98.377983 220.891953,96.709175 
	C219.769592,90.957191 219.803772,84.627090 213.843887,80.257179 
	C212.614883,79.153755 211.385895,78.050323 209.958969,76.438652 
	C209.646805,76.337517 209.334625,76.236382 208.601379,75.977386 
	C208.601379,75.977386 208.152802,75.945770 207.883911,75.333061 
	C206.938568,74.845222 205.993225,74.357376 204.741974,73.205139 
	C201.520691,72.139351 198.365952,70.746567 195.064529,70.074532 
	C187.751038,68.585793 180.363861,67.459023 172.374542,65.981903 
	C171.933945,65.945633 171.493362,65.909363 170.798187,65.300194 
	C169.500458,64.400177 168.202744,63.500156 166.752289,62.263412 
M568.304138,128.088074 
	C570.231445,121.753784 572.158813,115.419495 575.010315,109.015236 
	C587.971985,109.015236 600.933655,109.015236 613.166565,109.015236 
	C615.409241,115.739281 617.347229,121.878075 619.582092,127.906815 
	C619.928650,128.841690 621.620789,129.823273 622.712280,129.848434 
	C630.097595,130.018570 637.488831,129.937225 645.240540,129.937225 
	C640.980164,117.767036 637.007263,106.260735 632.924072,94.793716 
	C627.851135,80.547058 622.597229,66.364288 617.600952,52.091099 
	C615.187256,45.195728 613.438538,38.060680 610.863281,31.232306 
	C609.894409,28.663101 608.778015,25.560635 604.394287,25.860491 
	C597.428711,26.336956 590.401672,26.136755 583.410706,25.911348 
	C580.587891,25.820335 579.161926,26.890896 578.279053,29.366293 
	C573.693298,42.222897 568.962646,55.028748 564.482544,67.921799 
	C560.634827,78.994835 557.125366,90.185013 553.337830,101.279510 
	C550.088440,110.797714 546.657288,120.253868 543.238098,129.930908 
	C550.466919,129.930908 557.130920,130.003677 563.790833,129.869354 
	C565.118347,129.842575 566.429871,129.024139 568.304138,128.088074 
M360.994873,27.119734 
	C360.363403,26.431505 359.744965,25.159609 359.098450,25.145168 
	C352.502594,24.997835 345.902130,25.055046 339.457764,25.055046 
	C339.209137,25.886761 339.039124,26.190058 339.039062,26.493374 
	C339.034210,59.281349 339.066528,92.069366 339.017059,124.857262 
	C339.011139,128.784027 340.853821,130.013016 344.533875,129.998184 
	C363.174774,129.923035 381.816223,129.980362 400.457458,129.990906 
	C402.552582,129.992096 404.647736,129.991058 406.947662,129.991058 
	C406.947662,124.603836 406.705017,119.783417 407.022430,115.000168 
	C407.288757,110.986420 405.862915,109.831520 401.912476,109.906250 
	C389.766693,110.136002 377.613800,109.970772 365.463806,110.008308 
	C363.201569,110.015297 361.018555,110.129852 361.023407,106.081932 
	C360.968689,80.051750 360.913971,54.021572 360.994873,27.119734 
M108.793526,119.015999 
	C111.079575,119.125648 113.365631,119.235291 115.818298,119.352928 
	C115.818298,108.145943 115.818321,97.496483 115.818260,86.847015 
	C115.818253,86.181137 115.884544,85.506790 115.801537,84.851387 
	C115.678383,83.879112 115.468918,82.916039 115.262169,81.956367 
	C113.299446,72.846069 103.761246,65.700233 92.666611,65.149109 
	C85.068298,64.771660 77.457893,64.203438 69.862915,64.328598 
	C63.624714,64.431412 62.253624,66.285477 62.184196,71.604828 
	C62.092957,78.595345 62.144356,85.587730 62.136860,92.579315 
	C62.133564,95.650948 62.136307,98.722580 62.136307,101.445343 
	C46.132500,101.019836 30.907122,100.347740 15.681601,100.344437 
	C9.759319,100.343147 4.320102,105.493141 4.161867,109.887825 
	C3.767938,120.828400 3.581508,131.777100 3.112263,142.713989 
	C2.916709,147.271851 4.774822,148.942474 9.269491,148.879578 
	C21.585747,148.707153 33.905861,148.809540 46.224445,148.804596 
	C51.328838,148.802551 56.433231,148.804260 62.066990,148.804260 
	C62.066990,142.053711 61.401154,135.758804 62.322186,129.705338 
	C62.855980,126.196976 59.881603,121.966812 64.455482,119.802757 
	C78.296684,119.865845 92.137871,119.942261 105.979111,119.952583 
	C106.668846,119.953102 107.359009,119.379623 108.793526,119.015999 
M3.097384,51.492424 
	C3.443277,56.922115 3.704276,62.358829 4.152930,67.780014 
	C5.056033,78.692429 11.718097,85.875183 22.493166,86.813583 
	C30.916380,87.547150 39.409683,87.751556 47.863541,87.627052 
	C49.572182,87.601883 52.583031,85.159492 52.711601,83.638618 
	C53.464603,74.731224 53.550655,65.766876 53.834629,56.820881 
	C53.895073,54.916710 53.843437,53.008976 53.843437,50.910614 
	C56.041046,50.910614 57.366123,50.888855 58.690311,50.913929 
	C74.144279,51.206562 89.597488,51.546566 105.052292,51.783169 
	C110.805214,51.871243 115.597450,48.714516 115.703003,44.227036 
	C115.973244,32.738785 116.018166,21.231997 115.589836,9.753643 
	C115.518829,7.850965 112.713188,4.572388 110.991287,4.449382 
	C99.905434,3.657456 88.771103,3.480916 77.649483,3.274493 
	C69.663368,3.126268 61.672291,3.245650 52.523815,3.245650 
	C52.523815,13.731826 52.523815,23.693783 52.523815,33.890182 
	C36.580372,33.890182 21.779446,34.086216 6.991758,33.731045 
	C3.893342,33.656628 3.141463,34.394775 3.132960,37.009254 
	C3.118339,41.505142 3.106720,46.001041 3.097384,51.492424 
M662.663208,129.962234 
	C682.392395,129.962234 702.121582,129.962234 721.696411,129.962234 
	C721.696411,122.972061 721.696411,116.569595 721.696411,109.984161 
	C708.245239,109.984161 695.110229,109.832581 681.982422,110.074959 
	C677.954895,110.149315 676.902222,108.899178 676.928894,104.959068 
	C677.096497,80.160583 677.014099,55.360413 677.014282,30.560799 
	C677.014343,28.797615 677.014282,27.034431 677.014282,25.342922 
	C669.022156,25.342922 661.630432,25.342922 654.039429,25.342922 
	C654.039429,57.914322 654.032043,90.184715 654.045288,122.455101 
	C654.048096,129.423477 654.645325,129.974365 662.663208,129.962234 
M437.000305,65.500000 
	C437.000305,52.210583 437.000305,38.921169 437.000305,25.531292 
	C429.240479,25.531292 421.704559,25.531292 414.299683,25.531292 
	C414.299683,60.297249 414.299683,95.029243 414.299683,129.684631 
	C422.010437,129.684631 429.412903,129.684631 437.000000,129.684631 
	C437.000000,108.433754 437.000000,87.466873 437.000305,65.500000 
z"/>
<path fill="#DB1A1B" opacity="1.000000" stroke="none" 
	d="
M64.007446,119.072861 
	C59.881603,121.966812 62.855980,126.196976 62.322186,129.705338 
	C61.401154,135.758804 62.066990,142.053711 62.066990,148.804260 
	C56.433231,148.804260 51.328838,148.802551 46.224445,148.804596 
	C33.905861,148.809540 21.585747,148.707153 9.269491,148.879578 
	C4.774822,148.942474 2.916709,147.271851 3.112263,142.713989 
	C3.581508,131.777100 3.767938,120.828400 4.161867,109.887825 
	C4.320102,105.493141 9.759319,100.343147 15.681601,100.344437 
	C30.907122,100.347740 46.132500,101.019836 62.136307,101.445343 
	C62.136307,98.722580 62.133564,95.650948 62.136860,92.579315 
	C62.144356,85.587730 62.092957,78.595345 62.184196,71.604828 
	C62.253624,66.285477 63.624714,64.431412 69.862915,64.328598 
	C77.457893,64.203438 85.068298,64.771660 92.666611,65.149109 
	C103.761246,65.700233 113.299446,72.846069 115.262169,81.956367 
	C115.468918,82.916039 115.678383,83.879112 115.801537,84.851387 
	C115.884544,85.506790 115.818253,86.181137 115.818260,86.847015 
	C115.818321,97.496483 115.818298,108.145943 115.818298,119.352928 
	C113.365631,119.235291 111.079575,119.125648 107.951057,119.025299 
	C92.741539,119.047356 78.374496,119.060104 64.007446,119.072861 
z"/>
<path fill="#DA1A1B" opacity="1.000000" stroke="none" 
	d="
M3.095613,50.994678 
	C3.106720,46.001041 3.118339,41.505142 3.132960,37.009254 
	C3.141463,34.394775 3.893342,33.656628 6.991758,33.731045 
	C21.779446,34.086216 36.580372,33.890182 52.523815,33.890182 
	C52.523815,23.693783 52.523815,13.731826 52.523815,3.245650 
	C61.672291,3.245650 69.663368,3.126268 77.649483,3.274493 
	C88.771103,3.480916 99.905434,3.657456 110.991287,4.449382 
	C112.713188,4.572388 115.518829,7.850965 115.589836,9.753643 
	C116.018166,21.231997 115.973244,32.738785 115.703003,44.227036 
	C115.597450,48.714516 110.805214,51.871243 105.052292,51.783169 
	C89.597488,51.546566 74.144279,51.206562 58.690311,50.913929 
	C57.366123,50.888855 56.041046,50.910614 53.843437,50.910614 
	C53.843437,53.008976 53.895073,54.916710 53.834629,56.820881 
	C53.550655,65.766876 53.464603,74.731224 52.711601,83.638618 
	C52.583031,85.159492 49.572182,87.601883 47.863541,87.627052 
	C39.409683,87.751556 30.916380,87.547150 22.493166,86.813583 
	C11.718097,85.875183 5.056033,78.692429 4.152930,67.780014 
	C3.704276,62.358829 3.443277,56.922115 3.095613,50.994678 
z"/>
<path fill="#EDEDEB" opacity="1.000000" stroke="none" 
	d="
M243.955002,120.106621 
	C243.368317,119.652573 242.781631,119.198532 242.100220,118.091301 
	C240.302231,115.645714 238.598984,113.853317 236.895752,112.060913 
	C236.895752,112.060913 236.981873,112.027351 236.972397,111.685226 
	C236.484085,109.959785 236.204193,108.464165 235.496292,107.210152 
	C226.331665,90.975182 225.769867,74.093208 231.619232,56.727909 
	C232.959763,52.748169 234.486023,48.830982 235.926804,44.885006 
	C235.926804,44.885006 235.973206,44.969582 236.296829,44.939705 
	C237.728226,43.220490 238.835999,41.531151 239.943771,39.841816 
	C241.378387,38.285240 242.813004,36.728664 244.927231,35.073723 
	C246.715515,33.945805 247.824158,32.916252 248.932800,31.886698 
	C248.932800,31.886694 248.971481,31.974005 249.316742,31.968559 
	C251.203690,31.423433 252.800354,31.003641 254.278595,30.325666 
	C270.322479,22.967314 286.043152,22.809092 301.462646,32.149895 
	C303.504700,33.386944 305.905457,34.031925 308.140076,34.951103 
	C310.762909,37.685040 313.385773,40.418972 316.015869,43.880165 
	C316.073608,45.099846 315.960754,45.696198 316.198334,46.069584 
	C323.378540,57.353630 325.927765,69.717339 325.067688,82.950928 
	C324.959320,84.618553 325.735992,86.343697 326.102570,88.042198 
	C326.075409,88.482704 326.048248,88.923210 325.589294,89.759293 
	C321.812836,97.499588 318.453491,104.837746 315.152893,112.202232 
	C314.904907,112.755562 315.076202,113.496811 315.052582,114.150696 
	C312.955597,116.375366 310.858643,118.600029 308.079773,120.927185 
	C306.624390,121.729256 305.850861,122.428841 305.077332,123.128418 
	C305.077332,123.128418 305.034454,123.039337 304.691956,123.037643 
	C299.968811,124.716057 295.573456,126.359161 291.213867,128.092255 
	C289.110321,128.928482 287.074097,129.934021 285.007385,130.862885 
	C284.576508,130.921310 284.145630,130.979721 283.152954,130.787750 
	C281.059967,130.362686 279.528748,130.188019 277.542267,130.010437 
	C272.232330,129.340027 267.318604,128.948105 262.540619,127.923233 
	C258.243195,127.001450 254.094742,125.385078 249.880585,124.075081 
	C249.880585,124.075081 249.967453,124.035286 249.919708,123.715248 
	C248.872528,122.957130 247.873093,122.519051 246.873672,122.080978 
	C246.873672,122.080978 246.963531,122.040367 246.942520,121.747665 
	C245.932678,121.005516 244.943832,120.556068 243.955002,120.106621 
M267.533905,111.564972 
	C275.440826,114.434616 283.007599,112.620552 290.373352,109.621300 
	C291.517395,109.155457 292.057892,107.207451 293.129883,105.361366 
	C294.360504,104.245430 295.591125,103.129494 297.559235,101.951591 
	C298.329865,101.380844 299.413757,100.978493 299.824585,100.214317 
	C307.037292,86.797722 307.176208,63.463154 296.619293,51.281120 
	C295.270447,49.724628 292.822418,49.120689 290.969879,48.028477 
	C290.969879,48.028477 290.929291,48.117943 290.900787,47.368835 
	C290.309875,46.637844 289.866760,45.539356 289.105042,45.232967 
	C281.846710,42.313374 274.263214,41.686256 266.953033,44.314083 
	C262.805145,45.805141 257.265137,46.769413 256.941376,53.587994 
	C256.761932,53.889301 256.496887,54.043739 255.415710,54.115986 
	C254.970871,55.118431 254.526031,56.120876 254.035751,57.033688 
	C254.035751,57.033688 254.126678,57.076488 253.384827,57.130287 
	C252.809540,57.680149 251.938812,58.125824 251.702698,58.795300 
	C247.262238,71.386536 246.547394,84.074333 251.497894,96.665192 
	C252.305115,98.718246 254.569504,100.198380 256.616455,102.052681 
	C256.911743,102.232430 257.058380,102.495148 257.024994,103.608818 
	C258.235748,108.926910 262.994415,109.454689 267.533905,111.564972 
z"/>
<path fill="#EDEDEB" opacity="1.000000" stroke="none" 
	d="
M534.099548,111.040222 
	C528.991516,114.953468 523.883545,118.866714 518.040894,122.898155 
	C510.523743,124.666962 503.741150,126.317574 496.665985,127.677841 
	C485.020844,127.257614 473.666382,126.965118 462.316772,127.094368 
	C458.790466,127.134529 456.319550,126.406647 455.006775,122.634186 
	C455.009399,121.494591 455.015625,120.734871 455.242950,119.834717 
	C455.316620,119.137772 455.169159,118.581268 455.015106,117.554596 
	C455.017273,88.044792 455.026001,59.005154 455.415894,29.804966 
	C465.648102,29.429220 475.500488,29.258284 485.349030,28.960058 
	C487.232574,28.903021 489.100922,28.344385 491.320740,28.012749 
	C493.109741,28.004871 494.554291,28.001411 496.420959,28.001118 
	C505.224335,30.340178 513.605591,32.676071 522.063171,35.374268 
	C523.466980,36.130936 524.794434,36.525307 526.121887,36.919678 
	C526.121887,36.919678 526.032166,36.965382 526.060730,37.281910 
	C528.770203,40.037956 531.451111,42.477478 534.132019,44.916992 
	C534.132019,44.916988 534.039429,44.963375 534.038818,45.296883 
	C534.155640,46.277443 534.096985,47.031464 534.415771,47.556080 
	C545.049072,65.054543 545.681580,83.125130 537.703369,101.762871 
	C537.145142,103.066811 537.273438,104.664604 537.082581,106.125763 
	C537.082581,106.125763 537.039429,106.034698 536.720886,106.083588 
	C535.961914,107.129593 535.521484,108.126724 535.081116,109.123856 
	C535.081116,109.123863 535.038147,109.032616 534.776062,109.060638 
	C534.375793,109.739174 534.237671,110.389694 534.099548,111.040222 
M517.295044,59.886349 
	C517.295044,59.886349 517.047363,59.632343 517.047363,59.632343 
	C517.047363,59.632343 516.765808,59.852585 516.377319,59.762829 
	C516.377319,59.762829 516.178223,59.417305 516.570190,58.755360 
	C515.868530,54.336140 513.663025,51.420029 508.972351,51.023113 
	C508.972351,51.023113 508.934357,51.110939 508.911713,50.375843 
	C507.973389,49.302036 507.181824,47.493481 506.073212,47.272064 
	C498.069611,45.673546 490.012878,44.322033 481.939209,43.119141 
	C481.019775,42.982155 479.891052,44.250088 478.457153,44.578445 
	C478.457153,44.578445 478.704376,44.149853 478.232697,43.934464 
	C478.108734,43.912563 477.984772,43.890667 477.860809,43.868755 
	C478.119629,43.971294 478.378448,44.073833 478.233826,44.902363 
	C477.956970,44.902287 477.680115,44.902206 476.703278,44.448029 
	C473.226898,43.687332 474.282501,46.374966 473.393799,48.614357 
	C473.264709,49.256863 473.023682,49.899235 473.022888,50.541897 
	C473.000305,68.789307 472.983154,87.036819 473.041382,105.284065 
	C473.045319,106.511688 473.648346,107.737396 474.091522,109.753395 
	C475.070862,110.493988 476.020325,111.832703 477.034088,111.883347 
	C488.049011,112.433540 499.011353,112.122154 508.854095,106.314842 
	C510.663483,105.247276 511.602448,102.704414 513.053223,100.384018 
	C513.234131,100.086426 513.498718,99.940529 514.573425,99.917755 
	C519.357788,96.379082 521.180115,91.714043 519.959900,85.967255 
	C519.959900,85.967255 519.867615,85.919930 520.684082,85.814629 
	C523.097351,78.841423 522.701599,71.983582 519.323730,65.498627 
	C518.627502,64.348557 517.931274,63.198483 517.892883,61.859127 
	C517.936584,61.537777 517.980286,61.216427 518.024048,60.895065 
	C517.778931,61.252060 517.533875,61.609051 516.791626,61.074375 
	C516.858337,60.740673 516.925110,60.406971 517.295044,59.886349 
z"/>
<path fill="#EDEDEB" opacity="1.000000" stroke="none" 
	d="
M219.154205,103.700752 
	C219.154221,103.700752 219.582306,103.460358 219.340240,103.782150 
	C217.091904,108.777122 215.085648,113.450294 213.079391,118.123474 
	C213.079391,118.123474 213.037582,118.033829 212.723419,118.061111 
	C211.290848,119.443962 210.172424,120.799538 209.054016,122.155121 
	C209.057159,122.502693 208.910080,122.766510 207.996155,122.985275 
	C206.576599,123.197670 205.682968,123.200096 204.983963,123.570152 
	C188.372421,132.364578 171.833725,132.788223 155.311249,123.312744 
	C154.666534,122.943008 153.693130,123.146378 152.872894,123.082695 
	C152.872894,123.082695 152.963760,123.040253 152.939026,122.726608 
	C149.942856,116.275208 146.971436,110.137451 144.002380,103.585953 
	C146.485687,95.477173 152.762955,103.546577 156.572189,100.280411 
	C157.205490,99.737389 160.184494,101.372131 161.646912,102.541534 
	C162.699142,103.382935 163.030701,105.124535 163.686478,106.463226 
	C164.044083,107.193253 164.237015,108.104355 164.794281,108.620697 
	C170.773224,114.160469 184.415161,115.812904 191.923737,111.805504 
	C192.880066,111.295097 193.327026,109.830284 194.009949,108.807632 
	C194.801529,107.913010 195.593109,107.018387 196.860519,106.260727 
	C197.886444,106.238373 198.713684,106.256058 198.945343,105.893349 
	C202.823959,99.820633 199.868393,91.145042 192.915482,88.923393 
	C188.702286,87.577156 184.290894,86.764977 179.915115,86.031693 
	C170.748886,84.495605 161.713486,82.748344 154.110947,76.811455 
	C153.311920,76.187492 151.945404,76.290260 150.842178,76.055862 
	C150.494843,76.057816 150.231339,75.910149 150.013229,74.993568 
	C149.871567,73.728859 149.937500,72.989944 149.640076,72.451897 
	C143.905624,62.078320 144.812881,51.675388 149.342621,41.201321 
	C149.780609,40.188557 149.758789,38.976933 149.950409,37.857620 
	C149.937729,37.506344 150.081375,37.239071 150.969711,36.990402 
	C153.013062,35.241352 154.468033,33.557701 155.922989,31.874050 
	C155.922989,31.874050 155.966125,31.964025 156.311569,31.963600 
	C157.909271,31.579193 159.215210,31.316877 160.405197,30.791777 
	C169.086853,26.960880 177.839111,23.863213 187.617676,25.984102 
	C198.135605,28.265356 207.694077,32.143661 213.257736,42.021587 
	C215.317642,45.678791 216.218674,49.988728 217.809448,54.453503 
	C215.369034,54.808701 214.408859,54.959675 213.445541,55.086826 
	C207.543457,55.865875 200.957642,59.040989 197.680939,50.544189 
	C197.546890,50.196621 196.479050,50.209152 195.846283,50.053909 
	C194.945190,49.279083 194.044098,48.504261 193.015533,47.080822 
	C190.244354,45.656582 187.600632,44.880959 184.956909,44.105339 
	C184.516830,44.077438 184.076752,44.049541 183.228546,43.578484 
	C178.312653,41.195602 170.832382,43.382610 169.056213,47.159573 
	C168.602859,47.735283 168.149506,48.310993 167.042358,48.991020 
	C162.780655,52.209011 161.830170,59.132385 164.665909,62.272991 
	C164.900253,62.532528 165.818420,62.174625 166.418869,62.103603 
	C166.418869,62.103603 166.752289,62.263412 166.618637,62.739639 
	C166.804016,66.170540 168.140762,67.375755 171.052765,65.873100 
	C171.493362,65.909363 171.933945,65.945633 172.770782,66.440605 
	C174.580811,67.596893 175.924683,68.599098 177.419800,68.942261 
	C186.592056,71.047523 195.798538,73.003654 205.218430,75.274025 
	C206.346420,75.674332 207.249619,75.810051 208.152802,75.945770 
	C208.152802,75.945770 208.601379,75.977386 208.945374,76.258224 
	C209.539871,76.757256 209.829041,76.893196 210.156891,76.946892 
	C211.385895,78.050323 212.614883,79.153755 213.962982,80.928604 
	C216.019836,88.540703 217.957581,95.481369 219.895325,102.422035 
	C219.893097,102.692589 219.890869,102.963142 219.532379,103.169571 
	C219.090149,103.012344 219.004166,102.919243 218.918152,102.826141 
	C218.996841,103.117683 219.075531,103.409218 219.154205,103.700752 
z"/>
<path fill="#EDEDEB" opacity="1.000000" stroke="none" 
	d="
M360.859283,27.991390 
	C360.913971,54.021572 360.968689,80.051750 360.589478,106.621521 
	C357.594208,111.280403 360.137451,111.973701 363.464783,111.985687 
	C373.407806,112.021500 383.351044,112.000923 393.294189,112.001411 
	C405.498260,112.002014 405.390472,111.998741 405.068054,124.134415 
	C404.985687,127.235222 403.933044,128.387405 400.681152,127.687241 
	C398.742554,127.263725 397.098175,127.019875 395.453491,127.017616 
	C377.631531,126.993095 359.809509,127.006523 341.993774,127.004791 
	C342.000000,127.000000 341.990082,127.012833 341.999847,126.658020 
	C341.408936,124.591904 346.547089,121.817062 341.021393,120.547241 
	C341.007751,91.417328 341.105682,62.756287 340.893982,34.097530 
	C340.859558,29.437620 341.870575,27.445713 346.870758,27.903353 
	C351.497528,28.326813 356.193695,27.992174 360.859283,27.991390 
z"/>
<path fill="#F7F7F5" opacity="1.000000" stroke="none" 
	d="
M567.748779,128.570755 
	C566.429871,129.024139 565.118347,129.842575 563.790833,129.869354 
	C557.130920,130.003677 550.466919,129.930908 543.238098,129.930908 
	C546.657288,120.253868 550.088440,110.797714 553.337830,101.279510 
	C557.125366,90.185013 560.634827,78.994835 564.482544,67.921799 
	C568.962646,55.028748 573.693298,42.222897 578.279053,29.366293 
	C579.161926,26.890896 580.587891,25.820335 583.410706,25.911348 
	C590.401672,26.136755 597.428711,26.336956 604.394287,25.860491 
	C608.778015,25.560635 609.894409,28.663101 610.863281,31.232306 
	C613.438538,38.060680 615.187256,45.195728 617.600952,52.091099 
	C622.597229,66.364288 627.851135,80.547058 632.924072,94.793716 
	C637.007263,106.260735 640.980164,117.767036 645.240540,129.937225 
	C637.488831,129.937225 630.097595,130.018570 622.712280,129.848434 
	C621.620789,129.823273 619.928650,128.841690 619.582092,127.906815 
	C617.347229,121.878075 615.409241,115.739281 613.166565,109.015236 
	C600.933655,109.015236 587.971985,109.015236 574.514160,109.016205 
	C574.017944,109.017181 573.950439,108.948486 574.058228,108.556839 
	C574.845886,107.783409 575.523926,107.072685 576.205994,107.068764 
	C588.023010,107.000824 599.843811,106.888481 611.653870,107.182785 
	C613.162659,107.220383 615.261475,109.187859 615.966370,110.762840 
	C617.652161,114.529510 618.602966,118.618713 619.977173,122.533241 
	C621.145508,125.861237 623.183838,128.146210 627.125977,128.015274 
	C630.284912,127.910332 633.450439,128.020554 636.612488,127.987610 
	C642.130859,127.930115 642.466980,127.541832 640.563599,122.206825 
	C632.991455,100.982666 625.321838,79.793289 617.741455,58.572094 
	C614.731506,50.145741 612.042969,41.598606 608.795349,33.267345 
	C607.986816,31.192982 605.697815,28.411995 603.879272,28.245279 
	C597.277039,27.639997 590.579041,27.851246 583.933411,28.134998 
	C582.562012,28.193550 580.518677,29.610266 580.045105,30.873398 
	C576.506104,40.313396 573.298401,49.877293 569.959167,59.392612 
	C564.144165,75.962479 558.273193,92.512802 552.501587,109.097710 
	C550.375244,115.207764 548.463806,121.392616 546.305725,127.998169 
	C553.825134,127.998169 560.411377,127.998169 567.179749,128.148682 
	C567.361938,128.299179 567.748779,128.570755 567.748779,128.570755 
z"/>
<path fill="#F5F5F4" opacity="1.000000" stroke="none" 
	d="
M662.189148,129.963226 
	C654.645325,129.974365 654.048096,129.423477 654.045288,122.455101 
	C654.032043,90.184715 654.039429,57.914322 654.039429,25.342922 
	C661.630432,25.342922 669.022156,25.342922 677.014282,25.342922 
	C677.014282,27.034431 677.014343,28.797615 677.014282,30.560799 
	C677.014099,55.360413 677.096497,80.160583 676.928894,104.959068 
	C676.902222,108.899178 677.954895,110.149315 681.982422,110.074959 
	C695.110229,109.832581 708.245239,109.984161 721.696411,109.984161 
	C721.696411,116.569595 721.696411,122.972061 721.696411,129.962234 
	C702.121582,129.962234 682.392395,129.962234 662.189148,129.963226 
M717.803040,127.957207 
	C718.533997,126.904335 719.748230,125.914955 719.896606,124.785545 
	C720.218872,122.331848 719.779602,119.783142 720.046692,117.316048 
	C720.485901,113.259560 719.122498,111.790321 714.845276,111.907463 
	C704.203857,112.198883 693.549072,112.004395 682.899658,112.002075 
	C675.005127,112.000359 674.999756,111.998299 674.998596,103.825462 
	C674.995544,83.025826 674.997803,62.226181 674.997742,41.426540 
	C674.997681,27.940714 674.994446,28.125269 661.496094,27.895540 
	C657.101074,27.820742 655.868469,29.028563 655.898315,33.463017 
	C656.096741,62.913979 655.986572,92.366943 656.047546,121.819099 
	C656.051147,123.546722 656.669983,125.273056 657.590637,127.592590 
	C659.067993,127.725151 660.545166,127.971245 662.022644,127.973030 
	C680.338135,127.995201 698.653625,127.981789 717.803040,127.957207 
z"/>
<path fill="#F9F9F8" opacity="1.000000" stroke="none" 
	d="
M360.927063,27.555561 
	C356.193695,27.992174 351.497528,28.326813 346.870758,27.903353 
	C341.870575,27.445713 340.859558,29.437620 340.893982,34.097530 
	C341.105682,62.756287 341.007751,91.417328 341.013336,120.949509 
	C341.339264,123.551888 341.664673,125.282356 341.990082,127.012833 
	C341.990082,127.012833 342.000000,127.000000 342.289734,127.300919 
	C344.057587,127.731911 345.535614,127.973305 347.013916,127.975098 
	C365.001007,127.996872 382.988159,127.983406 400.975281,127.979088 
	C403.933044,128.387405 404.985687,127.235222 405.068054,124.134415 
	C405.390472,111.998741 405.498260,112.002014 393.294189,112.001411 
	C383.351044,112.000923 373.407806,112.021500 363.464783,111.985687 
	C360.137451,111.973701 357.594208,111.280403 360.510468,107.084824 
	C361.018555,110.129852 363.201569,110.015297 365.463806,110.008308 
	C377.613800,109.970772 389.766693,110.136002 401.912476,109.906250 
	C405.862915,109.831520 407.288757,110.986420 407.022430,115.000168 
	C406.705017,119.783417 406.947662,124.603836 406.947662,129.991058 
	C404.647736,129.991058 402.552582,129.992096 400.457458,129.990906 
	C381.816223,129.980362 363.174774,129.923035 344.533875,129.998184 
	C340.853821,130.013016 339.011139,128.784027 339.017059,124.857262 
	C339.066528,92.069366 339.034210,59.281349 339.039062,26.493374 
	C339.039124,26.190058 339.209137,25.886761 339.457764,25.055046 
	C345.902130,25.055046 352.502594,24.997835 359.098450,25.145168 
	C359.744965,25.159609 360.363403,26.431505 360.927063,27.555561 
z"/>
<path fill="#FCFCFB" opacity="1.000000" stroke="none" 
	d="
M437.000153,66.000000 
	C437.000000,87.466873 437.000000,108.433754 437.000000,129.684631 
	C429.412903,129.684631 422.010437,129.684631 414.299683,129.684631 
	C414.299683,95.029243 414.299683,60.297249 414.299683,25.531292 
	C421.704559,25.531292 429.240479,25.531292 437.000305,25.531292 
	C437.000305,38.921169 437.000305,52.210583 437.000153,66.000000 
M415.998779,64.500000 
	C415.998962,83.972115 416.081390,103.444885 415.927795,122.915787 
	C415.898193,126.671249 416.696686,128.535797 420.872314,128.070755 
	C423.831329,127.741196 426.884369,127.749626 429.845764,128.068634 
	C434.128021,128.529907 435.110657,126.751709 435.086243,122.706062 
	C434.924408,95.912048 435.001495,69.116585 435.002350,42.321594 
	C435.002838,27.650208 435.005371,27.769121 420.403687,27.910316 
	C416.822968,27.944941 415.875000,29.158072 415.931915,32.545353 
	C416.105286,42.861027 415.997253,53.181435 415.998779,64.500000 
z"/>
<path fill="#F7F7F5" opacity="1.000000" stroke="none" 
	d="
M455.021790,119.975151 
	C455.015625,120.734871 455.009399,121.494591 455.004517,123.046509 
	C455.018250,125.211456 455.030640,126.584198 454.891327,128.170197 
	C454.653381,128.535156 454.567200,128.686859 454.481018,128.838547 
	C454.002869,127.697548 453.109558,126.557472 453.106995,125.415398 
	C453.032318,92.206413 453.046631,58.997242 453.046631,26.021185 
	C466.824402,26.021185 480.460999,26.021185 494.679138,26.334991 
	C495.506775,27.098520 495.752777,27.548241 495.998779,27.997955 
	C494.554291,28.001411 493.109741,28.004871 490.854919,28.008781 
	C479.817474,28.009140 469.589081,27.932051 459.364563,28.095984 
	C457.911652,28.119278 456.477539,29.313326 455.034729,29.965511 
	C455.026001,59.005154 455.017273,88.044792 455.011780,117.879471 
	C455.017273,119.108055 455.019531,119.541603 455.021790,119.975151 
z"/>
<path fill="#F7F7F5" opacity="1.000000" stroke="none" 
	d="
M195.923218,50.424530 
	C196.479050,50.209152 197.546890,50.196621 197.680939,50.544189 
	C200.957642,59.040989 207.543457,55.865875 213.445541,55.086826 
	C214.408859,54.959675 215.369034,54.808701 217.809448,54.453503 
	C216.218674,49.988728 215.317642,45.678791 213.257736,42.021587 
	C207.694077,32.143661 198.135605,28.265356 187.617676,25.984102 
	C177.839111,23.863213 169.086853,26.960880 160.405197,30.791777 
	C159.215210,31.316877 157.909271,31.579193 156.266663,31.941849 
	C160.758759,26.992313 167.108414,25.320290 173.598846,24.074850 
	C184.275620,22.026094 194.062378,24.552507 203.427765,29.780233 
	C213.945312,35.651093 218.527740,44.755665 219.232269,56.849018 
	C212.506073,57.337723 206.161331,57.798714 199.643875,58.272255 
	C198.357468,55.632477 197.178802,53.213814 195.923218,50.424530 
z"/>
<path fill="#F3F3F1" opacity="1.000000" stroke="none" 
	d="
M193.628326,108.899452 
	C193.327026,109.830284 192.880066,111.295097 191.923737,111.805504 
	C184.415161,115.812904 170.773224,114.160469 164.794281,108.620697 
	C164.237015,108.104355 164.044083,107.193253 163.686478,106.463226 
	C163.030701,105.124535 162.699142,103.382935 161.646912,102.541534 
	C160.184494,101.372131 157.205490,99.737389 156.572189,100.280411 
	C152.762955,103.546577 146.485687,95.477173 143.556747,103.654678 
	C142.814438,104.198547 142.520172,104.259933 142.225922,104.321327 
	C142.225922,102.039024 142.225922,99.756714 142.225922,98.054497 
	C145.571899,98.054497 148.762817,98.054497 151.953735,98.054497 
	C155.109055,98.054497 158.264359,98.054497 161.371460,98.054497 
	C167.632492,112.744171 180.554214,115.061455 193.628326,108.899452 
z"/>
<path fill="#F6F6F4" opacity="1.000000" stroke="none" 
	d="
M235.606415,45.039322 
	C234.486023,48.830982 232.959763,52.748169 231.619232,56.727909 
	C225.769867,74.093208 226.331665,90.975182 235.496292,107.210152 
	C236.204193,108.464165 236.484085,109.959785 236.948425,111.724747 
	C229.802383,104.576210 227.341949,94.902611 226.253464,85.232605 
	C224.659409,71.071274 227.307800,57.418034 235.606415,45.039322 
z"/>
<path fill="#F5F5F3" opacity="1.000000" stroke="none" 
	d="
M537.407715,105.977905 
	C537.273438,104.664604 537.145142,103.066811 537.703369,101.762871 
	C545.681580,83.125130 545.049072,65.054543 534.415771,47.556080 
	C534.096985,47.031464 534.155640,46.277443 534.061768,45.250481 
	C540.194275,50.959751 542.389832,58.783043 544.039124,66.914169 
	C546.026855,76.713600 544.865723,86.327072 542.326599,95.784424 
	C541.385071,99.291290 539.297729,102.490524 537.407715,105.977905 
z"/>
<path fill="#F7F7F5" opacity="1.000000" stroke="none" 
	d="
M150.986923,76.371986 
	C151.945404,76.290260 153.311920,76.187492 154.110947,76.811455 
	C161.713486,82.748344 170.748886,84.495605 179.915115,86.031693 
	C184.290894,86.764977 188.702286,87.577156 192.915482,88.923393 
	C199.868393,91.145042 202.823959,99.820633 198.945343,105.893349 
	C198.713684,106.256058 197.886444,106.238373 197.139801,106.141296 
	C200.532669,95.859909 197.099915,90.779144 185.748428,88.949287 
	C175.883316,87.359024 165.897720,86.062279 157.019226,80.956047 
	C154.929657,79.754288 153.087601,78.122215 150.986923,76.371986 
z"/>
<path fill="#F7F7F5" opacity="1.000000" stroke="none" 
	d="
M496.958557,127.968201 
	C503.741150,126.317574 510.523743,124.666962 517.716309,123.029800 
	C511.177246,125.337906 504.340424,129.065811 497.255188,129.620316 
	C483.697113,130.681396 469.997772,129.942444 456.357086,129.921158 
	C455.911560,129.920456 455.466522,129.600647 454.751160,129.134064 
	C454.567200,128.686859 454.653381,128.535156 455.354858,128.181686 
	C469.632965,127.976021 483.295746,127.972115 496.958557,127.968201 
z"/>
<path fill="#F6F6F4" opacity="1.000000" stroke="none" 
	d="
M307.984192,34.638439 
	C305.905457,34.031925 303.504700,33.386944 301.462646,32.149895 
	C286.043152,22.809092 270.322479,22.967314 254.278595,30.325666 
	C252.800354,31.003641 251.203690,31.423433 249.274597,31.946106 
	C254.668182,29.306787 260.221008,25.752594 266.280792,24.268976 
	C276.763062,21.702597 287.345184,22.622223 297.154297,27.688360 
	C300.865112,29.604902 304.279053,32.096375 307.984192,34.638439 
z"/>
<path fill="#F8F8F6" opacity="1.000000" stroke="none" 
	d="
M153.016968,123.402054 
	C153.693130,123.146378 154.666534,122.943008 155.311249,123.312744 
	C171.833725,132.788223 188.372421,132.364578 204.983963,123.570152 
	C205.682968,123.200096 206.576599,123.197670 207.766785,123.038811 
	C197.862625,131.412415 185.865799,133.023331 173.245544,131.519531 
	C165.958832,130.651276 158.924225,128.714996 153.016968,123.402054 
z"/>
<path fill="#F8F8F6" opacity="1.000000" stroke="none" 
	d="
M326.464661,87.803001 
	C325.735992,86.343697 324.959320,84.618553 325.067688,82.950928 
	C325.927765,69.717339 323.378540,57.353630 316.198334,46.069584 
	C315.960754,45.696198 316.073608,45.099846 316.038879,44.225418 
	C320.892853,47.127106 322.030884,52.647488 323.873047,57.551910 
	C327.504547,67.220108 327.453308,77.397560 326.464661,87.803001 
z"/>
<path fill="#F7F7F5" opacity="1.000000" stroke="none" 
	d="
M149.627716,38.017857 
	C149.758789,38.976933 149.780609,40.188557 149.342621,41.201321 
	C144.812881,51.675388 143.905624,62.078320 149.640076,72.451897 
	C149.937500,72.989944 149.871567,73.728859 149.960419,74.764069 
	C141.692032,66.049858 142.994003,55.531559 145.710785,44.941406 
	C146.327408,42.537800 148.076965,40.424835 149.627716,38.017857 
z"/>
<path fill="#F5F5F3" opacity="1.000000" stroke="none" 
	d="
M204.993622,75.009438 
	C195.798538,73.003654 186.592056,71.047523 177.419800,68.942261 
	C175.924683,68.599098 174.580811,67.596893 173.086884,66.541977 
	C180.363861,67.459023 187.751038,68.585793 195.064529,70.074532 
	C198.365952,70.746567 201.520691,72.139351 204.880600,73.822273 
	C205.010696,74.629410 205.002151,74.819420 204.993622,75.009438 
z"/>
<path fill="#F9F9F7" opacity="1.000000" stroke="none" 
	d="
M496.420959,28.001122 
	C495.752777,27.548241 495.506775,27.098520 495.142487,26.420086 
	C504.938232,26.693659 514.549927,28.233875 522.701294,34.638664 
	C522.367493,34.992130 522.177185,35.002048 521.986816,35.011971 
	C513.605591,32.676071 505.224335,30.340178 496.420959,28.001122 
z"/>
<path fill="#F9F9F7" opacity="1.000000" stroke="none" 
	d="
M250.030762,124.399818 
	C254.094742,125.385078 258.243195,127.001450 262.540619,127.923233 
	C267.318604,128.948105 272.232330,129.340027 277.542999,130.311554 
	C277.998688,131.017487 277.998352,131.419342 277.998047,131.821213 
	C267.940033,132.535217 258.701050,130.038834 250.030762,124.399818 
z"/>
<path fill="#F8F8F6" opacity="1.000000" stroke="none" 
	d="
M315.371643,114.004326 
	C315.076202,113.496811 314.904907,112.755562 315.152893,112.202232 
	C318.453491,104.837746 321.812836,97.499588 325.511078,90.081131 
	C324.870911,98.980339 321.464996,106.924286 315.371643,114.004326 
z"/>
<path fill="#F8F8F6" opacity="1.000000" stroke="none" 
	d="
M220.208588,102.200226 
	C217.957581,95.481369 216.019836,88.540703 214.066925,81.224663 
	C219.803772,84.627090 219.769592,90.957191 220.891953,96.709175 
	C221.217590,98.377983 220.669434,100.217270 220.208588,102.200226 
z"/>
<path fill="#FF0000" opacity="1.000000" stroke="none" 
	d="
M64.231461,119.437805 
	C78.374496,119.060104 92.741539,119.047356 107.578781,119.054016 
	C107.359009,119.379623 106.668846,119.953102 105.979111,119.952583 
	C92.137871,119.942261 78.296684,119.865845 64.231461,119.437805 
z"/>
<path fill="#F8F8F6" opacity="1.000000" stroke="none" 
	d="
M142.423065,104.680168 
	C142.520172,104.259933 142.814438,104.198547 143.554352,104.068420 
	C146.971436,110.137451 149.942856,116.275208 152.917480,122.771889 
	C146.488693,119.432671 144.587021,113.034630 142.983337,106.458496 
	C142.867630,105.984024 142.741486,105.512115 142.423065,104.680168 
z"/>
<path fill="#F8F8F6" opacity="1.000000" stroke="none" 
	d="
M285.420837,130.931458 
	C287.074097,129.934021 289.110321,128.928482 291.213867,128.092255 
	C295.573456,126.359161 299.968811,124.716057 304.737061,123.057907 
	C299.602936,127.932495 292.973541,130.087173 285.420837,130.931458 
z"/>
<path fill="#F7F7F5" opacity="1.000000" stroke="none" 
	d="
M574.052063,109.051193 
	C572.158813,115.419495 570.231445,121.753784 568.026489,128.329407 
	C567.748779,128.570755 567.361938,128.299179 567.187500,127.756866 
	C568.485779,122.194435 569.866882,117.144211 571.497192,112.175758 
	C571.895386,110.962318 573.110779,110.017052 573.950439,108.948486 
	C573.950439,108.948486 574.017944,109.017181 574.052063,109.051193 
z"/>
<path fill="#F8F8F6" opacity="1.000000" stroke="none" 
	d="
M213.397476,117.981697 
	C215.085648,113.450294 217.091904,108.777122 219.481476,103.982948 
	C219.710526,109.355141 217.189056,113.806938 213.397476,117.981697 
z"/>
<path fill="#F7F7F5" opacity="1.000000" stroke="none" 
	d="
M166.225861,61.790306 
	C165.818420,62.174625 164.900253,62.532528 164.665909,62.272991 
	C161.830170,59.132385 162.780655,52.209011 166.774170,49.075676 
	C165.283768,53.060219 163.784470,57.098602 166.225861,61.790306 
z"/>
<path fill="#F7F7F5" opacity="1.000000" stroke="none" 
	d="
M169.434967,47.080078 
	C170.832382,43.382610 178.312653,41.195602 182.906799,43.500900 
	C178.600037,44.911179 174.206879,45.955883 169.434967,47.080078 
z"/>
<path fill="#F5F5F3" opacity="1.000000" stroke="none" 
	d="
M534.070557,44.572327 
	C531.451111,42.477478 528.770203,40.037956 526.082642,37.236588 
	C528.720398,39.325706 531.364746,41.776680 534.070557,44.572327 
z"/>
<path fill="#F7F7F5" opacity="1.000000" stroke="none" 
	d="
M185.143311,44.430748 
	C187.600632,44.880959 190.244354,45.656582 192.916229,46.795685 
	C190.406158,46.358162 187.867935,45.557159 185.143311,44.430748 
z"/>
<path fill="#F6F6F4" opacity="1.000000" stroke="none" 
	d="
M236.947021,112.403687 
	C238.598984,113.853317 240.302231,115.645714 242.013092,117.819717 
	C240.346588,116.383034 238.672440,114.564743 236.947021,112.403687 
z"/>
<path fill="#F7F7F5" opacity="1.000000" stroke="none" 
	d="
M155.578247,31.935745 
	C154.468033,33.557701 153.013062,35.241352 151.200241,36.934944 
	C152.306076,35.295734 153.769791,33.646591 155.578247,31.935745 
z"/>
<path fill="#F7F7F5" opacity="1.000000" stroke="none" 
	d="
M170.925476,65.586647 
	C168.140762,67.375755 166.804016,66.170540 166.695007,62.908005 
	C168.202744,63.500156 169.500458,64.400177 170.925476,65.586647 
z"/>
<path fill="#F6F6F4" opacity="1.000000" stroke="none" 
	d="
M239.635284,39.980019 
	C238.835999,41.531151 237.728226,43.220490 236.252502,44.920662 
	C237.031967,43.327076 238.179382,41.722649 239.635284,39.980019 
z"/>
<path fill="#F8F8F6" opacity="1.000000" stroke="none" 
	d="
M209.397675,122.082275 
	C210.172424,120.799538 211.290848,119.443962 212.768097,118.082352 
	C211.998398,119.387352 210.869888,120.698395 209.397675,122.082275 
z"/>
<path fill="#F8F8F6" opacity="1.000000" stroke="none" 
	d="
M278.384308,131.903534 
	C277.998352,131.419342 277.998688,131.017487 277.998291,130.314484 
	C279.528748,130.188019 281.059967,130.362686 282.828979,130.838898 
	C281.634735,131.422241 280.202667,131.704056 278.384308,131.903534 
z"/>
<path fill="#F6F6F4" opacity="1.000000" stroke="none" 
	d="
M248.599945,31.940790 
	C247.824158,32.916252 246.715515,33.945805 245.227661,34.960991 
	C245.988007,33.962708 247.127548,32.978790 248.599945,31.940790 
z"/>
<path fill="#F5F5F3" opacity="1.000000" stroke="none" 
	d="
M522.063171,35.374268 
	C522.177185,35.002048 522.367493,34.992130 522.843384,34.967064 
	C524.042419,35.409813 524.956055,35.867710 525.995728,36.622643 
	C524.794434,36.525307 523.466980,36.130936 522.063171,35.374268 
z"/>
<path fill="#F9F9F7" opacity="1.000000" stroke="none" 
	d="
M244.077393,120.406387 
	C244.943832,120.556068 245.932678,121.005516 246.921906,121.792465 
	C246.014801,121.655350 245.107300,121.180748 244.077393,120.406387 
z"/>
<path fill="#F5F5F3" opacity="1.000000" stroke="none" 
	d="
M535.384033,108.997345 
	C535.521484,108.126724 535.961914,107.129593 536.766235,106.105621 
	C536.649048,107.009468 536.167969,107.940147 535.384033,108.997345 
z"/>
<path fill="#F9F9F7" opacity="1.000000" stroke="none" 
	d="
M247.002655,122.381668 
	C247.873093,122.519051 248.872528,122.957130 249.900452,123.758972 
	C248.996521,123.642616 248.064072,123.162491 247.002655,122.381668 
z"/>
<path fill="#F8F8F6" opacity="1.000000" stroke="none" 
	d="
M205.218430,75.274025 
	C205.002151,74.819420 205.010696,74.629410 205.033554,74.154465 
	C205.993225,74.357376 206.938568,74.845222 208.018356,75.639420 
	C207.249619,75.810051 206.346420,75.674332 205.218430,75.274025 
z"/>
<path fill="#F8F8F6" opacity="1.000000" stroke="none" 
	d="
M305.402130,123.068100 
	C305.850861,122.428841 306.624390,121.729256 307.770325,121.039429 
	C307.337463,121.702049 306.532196,122.354912 305.402130,123.068100 
z"/>
<path fill="#F5F5F3" opacity="1.000000" stroke="none" 
	d="
M534.382812,110.928703 
	C534.237671,110.389694 534.375793,109.739174 534.821045,109.083389 
	C534.974182,109.657822 534.820190,110.237503 534.382812,110.928703 
z"/>
<path fill="#F8F8F6" opacity="1.000000" stroke="none" 
	d="
M210.057922,76.692772 
	C209.829041,76.893196 209.539871,76.757256 209.155914,76.337151 
	C209.334625,76.236382 209.646805,76.337517 210.057922,76.692772 
z"/>
<path fill="#F8F8F6" opacity="1.000000" stroke="none" 
	d="
M219.186798,103.689911 
	C219.075531,103.409218 218.996841,103.117683 218.918152,102.826141 
	C219.004166,102.919243 219.090149,103.012344 219.177643,103.366699 
	C219.179153,103.627968 219.219376,103.679077 219.186798,103.689911 
z"/>
<path fill="#000000" opacity="1.000000" stroke="none" 
	d="
M296.821777,102.013565 
	C295.591125,103.129494 294.360504,104.245430 292.642059,105.691330 
	C284.337006,111.556030 275.910248,112.281990 266.646912,109.112289 
	C263.213318,106.956970 260.134857,104.898903 257.056396,102.840836 
	C257.058380,102.495148 256.911743,102.232430 256.312134,101.630447 
	C251.560837,93.218857 249.122589,84.632370 250.143768,75.540016 
	C250.842941,69.314926 252.756195,63.226185 254.126678,57.076492 
	C254.126678,57.076488 254.035751,57.033688 254.358627,56.947411 
	C255.169754,55.924526 255.658005,54.987915 256.146240,54.051300 
	C256.496887,54.043739 256.761932,53.889301 257.301544,53.209038 
	C260.986938,50.549408 264.022827,47.433525 267.697144,46.160625 
	C275.526917,43.448135 283.437958,44.426289 290.929291,48.117943 
	C290.929291,48.117943 290.969879,48.028477 291.066467,48.358963 
	C296.064209,52.944603 299.476013,58.020443 301.122467,64.453438 
	C304.483429,77.585373 303.265259,90.066742 296.821777,102.013565 
z"/>
<path fill="#F6F6F4" opacity="1.000000" stroke="none" 
	d="
M297.190491,101.982574 
	C303.265259,90.066742 304.483429,77.585373 301.122467,64.453438 
	C299.476013,58.020443 296.064209,52.944603 291.023346,48.382458 
	C292.822418,49.120689 295.270447,49.724628 296.619293,51.281120 
	C307.176208,63.463154 307.037292,86.797722 299.824585,100.214317 
	C299.413757,100.978493 298.329865,101.380844 297.190491,101.982574 
z"/>
<path fill="#F6F6F4" opacity="1.000000" stroke="none" 
	d="
M253.755768,57.103390 
	C252.756195,63.226185 250.842941,69.314926 250.143768,75.540016 
	C249.122589,84.632370 251.560837,93.218857 256.084076,101.575760 
	C254.569504,100.198380 252.305115,98.718246 251.497894,96.665192 
	C246.547394,84.074333 247.262238,71.386536 251.702698,58.795300 
	C251.938812,58.125824 252.809540,57.680149 253.755768,57.103390 
z"/>
<path fill="#F6F6F4" opacity="1.000000" stroke="none" 
	d="
M290.915039,47.743389 
	C283.437958,44.426289 275.526917,43.448135 267.697144,46.160625 
	C264.022827,47.433525 260.986938,50.549408 257.352173,52.975731 
	C257.265137,46.769413 262.805145,45.805141 266.953033,44.314083 
	C274.263214,41.686256 281.846710,42.313374 289.105042,45.232967 
	C289.866760,45.539356 290.309875,46.637844 290.915039,47.743389 
z"/>
<path fill="#F8F8F6" opacity="1.000000" stroke="none" 
	d="
M267.002014,109.209534 
	C275.910248,112.281990 284.337006,111.556030 292.515869,105.983078 
	C292.057892,107.207451 291.517395,109.155457 290.373352,109.621300 
	C283.007599,112.620552 275.440826,114.434616 267.267395,110.983315 
	C267.001282,110.004280 267.001648,109.606911 267.002014,109.209534 
z"/>
<path fill="#F6F6F4" opacity="1.000000" stroke="none" 
	d="
M266.646912,109.112289 
	C267.001648,109.606911 267.001282,110.004280 267.001068,110.699646 
	C262.994415,109.454689 258.235748,108.926910 257.040710,103.224823 
	C260.134857,104.898903 263.213318,106.956970 266.646912,109.112289 
z"/>
<path fill="#F6F6F4" opacity="1.000000" stroke="none" 
	d="
M255.780975,54.083645 
	C255.658005,54.987915 255.169754,55.924526 254.381348,56.992233 
	C254.526031,56.120876 254.970871,55.118431 255.780975,54.083645 
z"/>
<path fill="#000000" opacity="1.000000" stroke="none" 
	d="
M513.846863,99.946320 
	C513.498718,99.940529 513.234131,100.086426 512.680542,100.759064 
	C510.635895,102.414749 509.084778,103.907951 507.271088,104.939575 
	C499.012878,109.636734 489.922882,110.007607 480.711487,110.073845 
	C477.015717,110.100426 475.856934,109.046432 475.893219,105.289360 
	C476.071411,86.833633 475.941162,68.375076 476.041992,49.918182 
	C476.051178,48.243729 476.928894,46.574028 477.403259,44.902122 
	C477.680115,44.902206 477.956970,44.902287 478.459564,44.558952 
	C478.685303,44.215546 478.704376,44.149853 478.704376,44.149853 
	C478.704376,44.149853 478.457153,44.578445 479.061127,44.791962 
	C489.895081,44.770458 499.814056,46.026264 508.934357,51.110939 
	C508.934357,51.110939 508.972351,51.023113 509.078918,51.359329 
	C511.516418,54.269463 513.847351,56.843380 516.178223,59.417297 
	C516.178223,59.417305 516.377319,59.762829 516.622559,59.836983 
	C516.867859,59.911140 516.991882,60.073277 516.991882,60.073273 
	C516.925110,60.406971 516.858337,60.740673 517.044006,61.496101 
	C517.296387,61.917828 517.235046,62.048412 517.235046,62.048409 
	C517.931274,63.198483 518.627502,64.348557 519.301514,65.547882 
	C519.475464,72.371399 519.671509,79.145668 519.867615,85.919930 
	C519.867615,85.919930 519.959900,85.967255 519.591248,86.105209 
	C517.430725,90.810890 515.638794,95.378601 513.846863,99.946320 
z"/>
<path fill="#F6F6F5" opacity="1.000000" stroke="none" 
	d="
M477.053284,44.675072 
	C476.928894,46.574028 476.051178,48.243729 476.041992,49.918182 
	C475.941162,68.375076 476.071411,86.833633 475.893219,105.289360 
	C475.856934,109.046432 477.015717,110.100426 480.711487,110.073845 
	C489.922882,110.007607 499.012878,109.636734 507.271088,104.939575 
	C509.084778,103.907951 510.635895,102.414749 512.625549,100.988304 
	C511.602448,102.704414 510.663483,105.247276 508.854095,106.314842 
	C499.011353,112.122154 488.049011,112.433540 477.034088,111.883347 
	C476.020325,111.832703 475.070862,110.493988 474.038147,108.894379 
	C473.982849,88.033051 473.980896,68.030754 473.978973,48.028450 
	C474.282501,46.374966 473.226898,43.687332 477.053284,44.675072 
z"/>
<path fill="#F6F6F5" opacity="1.000000" stroke="none" 
	d="
M508.923035,50.743393 
	C499.814056,46.026264 489.895081,44.770458 479.262238,44.936035 
	C479.891052,44.250088 481.019775,42.982155 481.939209,43.119141 
	C490.012878,44.322033 498.069611,45.673546 506.073212,47.272064 
	C507.181824,47.493481 507.973389,49.302036 508.923035,50.743393 
z"/>
<path fill="#E5E5E3" opacity="1.000000" stroke="none" 
	d="
M473.686401,48.321404 
	C473.980896,68.030754 473.982849,88.033051 473.978760,108.499680 
	C473.648346,107.737396 473.045319,106.511688 473.041382,105.284065 
	C472.983154,87.036819 473.000305,68.789307 473.022888,50.541897 
	C473.023682,49.899235 473.264709,49.256863 473.686401,48.321404 
z"/>
<path fill="#E4E4E2" opacity="1.000000" stroke="none" 
	d="
M496.665985,127.677841 
	C483.295746,127.972115 469.632965,127.976021 455.506592,127.968437 
	C455.030640,126.584198 455.018250,125.211456 455.008118,123.426376 
	C456.319550,126.406647 458.790466,127.134529 462.316772,127.094368 
	C473.666382,126.965118 485.020844,127.257614 496.665985,127.677841 
z"/>
<path fill="#F6F6F5" opacity="1.000000" stroke="none" 
	d="
M520.275879,85.867279 
	C519.671509,79.145668 519.475464,72.371399 519.558960,65.412109 
	C522.701599,71.983582 523.097351,78.841423 520.275879,85.867279 
z"/>
<path fill="#E4E4E2" opacity="1.000000" stroke="none" 
	d="
M455.415894,29.804966 
	C456.477539,29.313326 457.911652,28.119278 459.364563,28.095984 
	C469.589081,27.932051 479.817474,28.009140 490.510437,28.013199 
	C489.100922,28.344385 487.232574,28.903021 485.349030,28.960058 
	C475.500488,29.258284 465.648102,29.429220 455.415894,29.804966 
z"/>
<path fill="#F6F6F5" opacity="1.000000" stroke="none" 
	d="
M514.210144,99.932037 
	C515.638794,95.378601 517.430725,90.810890 519.568115,86.058807 
	C521.180115,91.714043 519.357788,96.379082 514.210144,99.932037 
z"/>
<path fill="#F6F6F5" opacity="1.000000" stroke="none" 
	d="
M516.374207,59.086327 
	C513.847351,56.843380 511.516418,54.269463 509.037445,51.383163 
	C513.663025,51.420029 515.868530,54.336140 516.374207,59.086327 
z"/>
<path fill="#F6F6F5" opacity="1.000000" stroke="none" 
	d="
M517.563965,61.953770 
	C517.235046,62.048412 517.296387,61.917828 517.292603,61.941933 
	C517.533875,61.609051 517.778931,61.252060 518.024048,60.895073 
	C517.980286,61.216427 517.936584,61.537777 517.563965,61.953770 
z"/>
<path fill="#E4E4E2" opacity="1.000000" stroke="none" 
	d="
M455.242920,119.834717 
	C455.019531,119.541603 455.017273,119.108055 455.018341,118.349640 
	C455.169159,118.581268 455.316620,119.137772 455.242920,119.834717 
z"/>
<path fill="#F6F6F5" opacity="1.000000" stroke="none" 
	d="
M517.143433,59.979813 
	C516.991882,60.073277 516.867859,59.911140 516.816833,59.881863 
	C516.765808,59.852585 517.047363,59.632343 517.047363,59.632343 
	C517.047363,59.632343 517.295044,59.886349 517.143433,59.979813 
z"/>
<path fill="#F6F6F5" opacity="1.000000" stroke="none" 
	d="
M478.468536,44.042160 
	C478.704376,44.149853 478.685303,44.215546 478.661255,44.195957 
	C478.378448,44.073833 478.119629,43.971294 477.860809,43.868763 
	C477.984772,43.890667 478.108734,43.912563 478.468536,44.042160 
z"/>
<path fill="#E6E6E4" opacity="1.000000" stroke="none" 
	d="
M400.681152,127.687241 
	C382.988159,127.983406 365.001007,127.996872 347.013916,127.975098 
	C345.535614,127.973305 344.057587,127.731911 342.283478,127.305710 
	C359.809509,127.006523 377.631531,126.993095 395.453491,127.017616 
	C397.098175,127.019875 398.742554,127.263725 400.681152,127.687241 
z"/>
<path fill="#E6E6E4" opacity="1.000000" stroke="none" 
	d="
M341.999847,126.658020 
	C341.664673,125.282356 341.339264,123.551888 341.021881,121.419151 
	C346.547089,121.817062 341.408936,124.591904 341.999847,126.658020 
z"/>
<path fill="#EDEDEB" opacity="1.000000" stroke="none" 
	d="
M574.058228,108.556839 
	C573.110779,110.017052 571.895386,110.962318 571.497192,112.175758 
	C569.866882,117.144211 568.485779,122.194435 567.005249,127.606361 
	C560.411377,127.998169 553.825134,127.998169 546.305725,127.998169 
	C548.463806,121.392616 550.375244,115.207764 552.501587,109.097710 
	C558.273193,92.512802 564.144165,75.962479 569.959167,59.392612 
	C573.298401,49.877293 576.506104,40.313396 580.045105,30.873398 
	C580.518677,29.610266 582.562012,28.193550 583.933411,28.134998 
	C590.579041,27.851246 597.277039,27.639997 603.879272,28.245279 
	C605.697815,28.411995 607.986816,31.192982 608.795349,33.267345 
	C612.042969,41.598606 614.731506,50.145741 617.741455,58.572094 
	C625.321838,79.793289 632.991455,100.982666 640.563599,122.206825 
	C642.466980,127.541832 642.130859,127.930115 636.612488,127.987610 
	C633.450439,128.020554 630.284912,127.910332 627.125977,128.015274 
	C623.183838,128.146210 621.145508,125.861237 619.977173,122.533241 
	C618.602966,118.618713 617.652161,114.529510 615.966370,110.762840 
	C615.261475,109.187859 613.162659,107.220383 611.653870,107.182785 
	C599.843811,106.888481 588.023010,107.000824 576.205994,107.068764 
	C575.523926,107.072685 574.845886,107.783409 574.058228,108.556839 
M608.568115,89.878220 
	C608.765930,88.946121 609.329468,87.913277 609.104797,87.097588 
	C606.968994,79.344490 604.700989,71.627815 602.467773,63.901585 
	C601.310791,59.898865 600.147339,55.898003 598.986816,51.896309 
	C598.698730,51.985062 598.410583,52.073811 598.122498,52.162563 
	C598.067322,52.810226 598.012146,53.457890 597.261108,53.684498 
	C596.919312,52.123291 596.577454,50.562084 596.871521,48.884808 
	C596.626526,48.259167 596.381470,47.633522 595.925110,46.454838 
	C595.674805,45.966763 595.424561,45.478687 595.755493,44.890514 
	C595.467163,44.272587 595.178894,43.654659 594.404724,42.948055 
	C594.404724,42.948055 593.986694,42.684994 593.810486,42.048584 
	C593.065186,41.933228 592.319885,41.817871 591.574585,41.702503 
	C591.988403,42.248100 592.402161,42.793694 592.887634,44.117657 
	C592.272766,45.447102 591.657959,46.776543 590.961365,47.533413 
	C590.904114,47.378639 590.881348,47.193501 590.779541,47.077961 
	C590.684875,46.970531 590.506104,46.937298 590.364319,46.871403 
	C589.626953,50.934681 588.889526,54.997963 588.037354,59.735222 
	C587.720032,60.499493 587.402649,61.263763 586.348328,62.137180 
	C583.577209,70.791229 580.627136,79.394211 578.133606,88.127518 
	C577.280701,91.114456 579.614502,92.043976 582.371704,92.019783 
	C589.661865,91.955826 596.955505,92.097702 604.241028,91.903061 
	C605.485535,91.869820 606.696533,90.579300 607.961121,89.960098 
	C607.961121,89.960098 607.870544,89.922211 608.568115,89.878220 
z"/>
<path fill="#EDEDEC" opacity="1.000000" stroke="none" 
	d="
M657.002563,127.000000 
	C656.669983,125.273056 656.051147,123.546722 656.047546,121.819099 
	C655.986572,92.366943 656.096741,62.913979 655.898315,33.463017 
	C655.868469,29.028563 657.101074,27.820742 661.496094,27.895540 
	C674.994446,28.125269 674.997681,27.940714 674.997742,41.426540 
	C674.997803,62.226181 674.995544,83.025826 674.998596,103.825462 
	C674.999756,111.998299 675.005127,112.000359 682.899658,112.002075 
	C693.549072,112.004395 704.203857,112.198883 714.845276,111.907463 
	C719.122498,111.790321 720.485901,113.259560 720.046692,117.316048 
	C719.779602,119.783142 720.218872,122.331848 719.896606,124.785545 
	C719.748230,125.914955 718.533997,126.904335 717.093262,127.675720 
	C714.572876,127.263329 712.762390,127.021584 710.951599,127.018684 
	C692.968567,126.989853 674.985535,127.000504 657.002563,127.000000 
z"/>
<path fill="#E6E6E4" opacity="1.000000" stroke="none" 
	d="
M657.296570,127.296295 
	C674.985535,127.000504 692.968567,126.989853 710.951599,127.018684 
	C712.762390,127.021584 714.572876,127.263329 716.676270,127.685883 
	C698.653625,127.981789 680.338135,127.995201 662.022644,127.973030 
	C660.545166,127.971245 659.067993,127.725151 657.296570,127.296295 
z"/>
<path fill="#ECECEA" opacity="1.000000" stroke="none" 
	d="
M415.998779,64.000000 
	C415.997253,53.181435 416.105286,42.861027 415.931915,32.545353 
	C415.875000,29.158072 416.822968,27.944941 420.403687,27.910316 
	C435.005371,27.769121 435.002838,27.650208 435.002350,42.321594 
	C435.001495,69.116585 434.924408,95.912048 435.086243,122.706062 
	C435.110657,126.751709 434.128021,128.529907 429.845764,128.068634 
	C426.884369,127.749626 423.831329,127.741196 420.872314,128.070755 
	C416.696686,128.535797 415.898193,126.671249 415.927795,122.915787 
	C416.081390,103.444885 415.998962,83.972115 415.998779,64.000000 
z"/>
<path fill="#000000" opacity="1.000000" stroke="none" 
	d="
M595.174255,44.990616 
	C595.424561,45.478687 595.674805,45.966763 595.963684,46.977531 
	C596.080017,48.000443 596.157837,48.500660 596.235657,49.000877 
	C596.577454,50.562084 596.919312,52.123291 597.633728,54.290535 
	C601.294373,66.571785 604.582458,78.247002 607.870544,89.922211 
	C607.870544,89.922211 607.961121,89.960098 607.481262,89.970016 
	C598.075867,89.979942 589.150330,89.979942 579.793274,89.979942 
	C580.059021,88.372963 580.156921,87.110184 580.484253,85.909981 
	C582.657104,77.941841 584.879272,69.987129 587.085327,62.028042 
	C587.402649,61.263763 587.720032,60.499493 588.434875,59.210564 
	C589.569275,55.159264 590.306213,51.632626 591.043091,48.105984 
	C591.657959,46.776543 592.272766,45.447102 593.034912,43.594540 
	C593.403137,42.844238 593.671265,42.715431 593.986694,42.684994 
	C593.986694,42.684994 594.404724,42.948055 594.699585,43.319008 
	C595.054382,44.123508 595.114319,44.557060 595.174255,44.990616 
z"/>
<path fill="#F8F8F6" opacity="1.000000" stroke="none" 
	d="
M586.716858,62.082611 
	C584.879272,69.987129 582.657104,77.941841 580.484253,85.909981 
	C580.156921,87.110184 580.059021,88.372963 579.793274,89.979942 
	C589.150330,89.979942 598.075867,89.979942 607.462158,89.924774 
	C606.696533,90.579300 605.485535,91.869820 604.241028,91.903061 
	C596.955505,92.097702 589.661865,91.955826 582.371704,92.019783 
	C579.614502,92.043976 577.280701,91.114456 578.133606,88.127518 
	C580.627136,79.394211 583.577209,70.791229 586.716858,62.082611 
z"/>
<path fill="#F8F8F6" opacity="1.000000" stroke="none" 
	d="
M608.219360,89.900223 
	C604.582458,78.247002 601.294373,66.571785 597.981689,54.501060 
	C598.012146,53.457890 598.067322,52.810226 598.122498,52.162563 
	C598.410583,52.073811 598.698730,51.985062 598.986816,51.896309 
	C600.147339,55.898003 601.310791,59.898865 602.467773,63.901585 
	C604.700989,71.627815 606.968994,79.344490 609.104797,87.097588 
	C609.329468,87.913277 608.765930,88.946121 608.219360,89.900223 
z"/>
<path fill="#F8F8F6" opacity="1.000000" stroke="none" 
	d="
M591.002197,47.819698 
	C590.306213,51.632626 589.569275,55.159264 588.492310,58.873573 
	C588.889526,54.997963 589.626953,50.934681 590.364319,46.871399 
	C590.506104,46.937298 590.684875,46.970531 590.779541,47.077961 
	C590.881348,47.193501 590.904114,47.378639 591.002197,47.819698 
z"/>
<path fill="#F8F8F6" opacity="1.000000" stroke="none" 
	d="
M593.898560,42.366791 
	C593.671265,42.715431 593.403137,42.844238 592.999084,43.205353 
	C592.402161,42.793694 591.988403,42.248100 591.574585,41.702507 
	C592.319885,41.817871 593.065186,41.933228 593.898560,42.366791 
z"/>
<path fill="#F8F8F6" opacity="1.000000" stroke="none" 
	d="
M595.464844,44.940567 
	C595.114319,44.557060 595.054382,44.123508 594.942505,43.363346 
	C595.178894,43.654659 595.467163,44.272587 595.464844,44.940567 
z"/>
<path fill="#F8F8F6" opacity="1.000000" stroke="none" 
	d="
M596.553589,48.942841 
	C596.157837,48.500660 596.080017,48.000443 596.069336,47.254051 
	C596.381470,47.633522 596.626526,48.259167 596.553589,48.942841 
z"/>
</svg>